<svg xmlns="http://www.w3.org/2000/svg" width="14" height="15" viewBox="0 0 14 15">
    <path fill="#000" fill-rule="evenodd" d="M9.286 7.286A2.29 2.29 0 0 0 7 5a2.29 2.29 0 0 0-2.286 2.286A2.29 2.29 0 0 0 7 9.57a2.29 2.29 0 0 0 2.286-2.285zm1.232 0A3.513 3.513 0 0 1 7 10.804a3.513 3.513 0 0 1-3.518-3.518A3.513 3.513 0 0 1 7 3.768a3.513 3.513 0 0 1 3.518 3.518zm.964-3.661a.82.82 0 0 1-.821.821.82.82 0 0 1-.822-.821.82.82 0 0 1 .822-.821.82.82 0 0 1 .821.821zM7 1.661c-1 0-3.143-.08-4.045.276a2.192 2.192 0 0 0-.785.518 2.192 2.192 0 0 0-.518.786c-.357.902-.277 3.045-.277 4.045s-.08 3.143.277 4.044c.125.313.277.545.518.786.24.241.473.393.785.518.902.357 3.045.277 4.045.277s3.143.08 4.045-.277c.312-.125.544-.277.785-.518s.393-.473.518-.786c.357-.901.277-3.044.277-4.044 0-1 .08-3.143-.277-4.045a2.192 2.192 0 0 0-.518-.786 2.192 2.192 0 0 0-.785-.518C10.143 1.58 8 1.661 7 1.661zm6.857 5.625c0 .946.01 1.884-.044 2.83-.054 1.098-.304 2.071-1.108 2.875-.803.804-1.776 1.054-2.875 1.107-.946.054-1.884.045-2.83.045-.946 0-1.884.009-2.83-.045-1.099-.053-2.072-.303-2.875-1.107C.49 12.187.24 11.214.188 10.116.134 9.17.143 8.232.143 7.286c0-.947-.01-1.884.045-2.83C.24 3.356.49 2.383 1.294 1.58 2.098.777 3.07.527 4.17.473 5.116.42 6.054.43 7 .43c.946 0 1.884-.01 2.83.044 1.099.054 2.072.304 2.875 1.107.804.804 1.054 1.777 1.108 2.875.053.947.044 1.884.044 2.83z"/>
</svg>
