<svg xmlns="http://www.w3.org/2000/svg" width="14" height="14" viewBox="0 0 14 14">
    <path fill="#000" fill-rule="evenodd" d="M3.259 4.866v8.848H.313V4.866h2.946zm.187-2.732c.01.848-.633 1.527-1.66 1.527h-.018C.777 3.66.143 2.982.143 2.134c0-.866.66-1.527 1.66-1.527 1.01 0 1.635.66 1.643 1.527zm4.375 3.99c.388-.606 1.087-1.463 2.652-1.463 1.938 0 3.384 1.268 3.384 3.982v5.071H10.92V8.982c0-1.187-.429-2-1.491-2-.813 0-1.295.545-1.51 1.072-.07.196-.098.455-.098.723v4.937H4.884c.036-8.018 0-8.848 0-8.848H7.82v1.258z"/>
</svg>
